<svg xmlns="http://www.w3.org/2000/svg" width="1200" height="630" viewBox="0 0 1200 630">
  <defs>
    <radialGradient id="glow" cx="50%" cy="30%" r="60%">
      <stop offset="0%" stop-color="rgba(99,102,241,0.25)"/>
      <stop offset="100%" stop-color="rgba(10,10,15,0)"/>
    </radialGradient>
  </defs>

  <!-- Background -->
  <rect width="1200" height="630" fill="#0a0a0f"/>
  <rect width="1200" height="630" fill="url(#glow)"/>

  <!-- Logo -->
  <g transform="translate(540, 140)">
    <circle cx="60" cy="60" r="50" fill="none" stroke="#6366f1" stroke-width="5"/>
    <path d="M36 60 L52 44 L68 60 L52 76 Z" fill="#6366f1"/>
    <circle cx="84" cy="60" r="9" fill="#6366f1"/>
  </g>

  <!-- Title -->
  <text x="600" y="290" text-anchor="middle" font-family="-apple-system,BlinkMacSystemFont,'Segoe UI',Roboto,sans-serif" font-size="56" font-weight="800" fill="#e4e4ef" letter-spacing="-1">Ortobahn</text>

  <!-- Subtitle -->
  <text x="600" y="340" text-anchor="middle" font-family="-apple-system,BlinkMacSystemFont,'Segoe UI',Roboto,sans-serif" font-size="24" fill="#8888a0">Autonomous AI Marketing Engine</text>

  <!-- Pipeline steps -->
  <g transform="translate(150, 400)">
    <rect x="0" y="0" width="150" height="44" rx="8" fill="#1a1a26" stroke="#2a2a3a"/>
    <text x="75" y="27" text-anchor="middle" font-family="-apple-system,sans-serif" font-size="14" font-weight="600" fill="#6366f1">Analytics</text>

    <line x1="155" y1="22" x2="185" y2="22" stroke="#2a2a3a" stroke-width="2"/>
    <polygon points="183,17 193,22 183,27" fill="#2a2a3a"/>

    <rect x="195" y="0" width="150" height="44" rx="8" fill="#1a1a26" stroke="#2a2a3a"/>
    <text x="270" y="27" text-anchor="middle" font-family="-apple-system,sans-serif" font-size="14" font-weight="600" fill="#6366f1">CEO</text>

    <line x1="350" y1="22" x2="380" y2="22" stroke="#2a2a3a" stroke-width="2"/>
    <polygon points="378,17 388,22 378,27" fill="#2a2a3a"/>

    <rect x="390" y="0" width="150" height="44" rx="8" fill="#1a1a26" stroke="#2a2a3a"/>
    <text x="465" y="27" text-anchor="middle" font-family="-apple-system,sans-serif" font-size="14" font-weight="600" fill="#6366f1">Strategist</text>

    <line x1="545" y1="22" x2="575" y2="22" stroke="#2a2a3a" stroke-width="2"/>
    <polygon points="573,17 583,22 573,27" fill="#2a2a3a"/>

    <rect x="585" y="0" width="150" height="44" rx="8" fill="#1a1a26" stroke="#2a2a3a"/>
    <text x="660" y="27" text-anchor="middle" font-family="-apple-system,sans-serif" font-size="14" font-weight="600" fill="#6366f1">Creator</text>

    <line x1="740" y1="22" x2="770" y2="22" stroke="#2a2a3a" stroke-width="2"/>
    <polygon points="768,17 778,22 768,27" fill="#2a2a3a"/>

    <rect x="780" y="0" width="150" height="44" rx="8" fill="#1a1a26" stroke="#6366f1"/>
    <text x="855" y="27" text-anchor="middle" font-family="-apple-system,sans-serif" font-size="14" font-weight="600" fill="#6366f1">Publisher</text>
  </g>

  <!-- Tagline -->
  <text x="600" y="510" text-anchor="middle" font-family="-apple-system,sans-serif" font-size="16" fill="#8888a0">5 AI agents. Zero manual work. Publishes to Bluesky, Twitter/X, LinkedIn.</text>

  <!-- Footer -->
  <text x="600" y="580" text-anchor="middle" font-family="-apple-system,sans-serif" font-size="14" fill="#6366f1">ortobahn.com</text>
  <text x="600" y="600" text-anchor="middle" font-family="-apple-system,sans-serif" font-size="12" fill="#8888a0">by Vaultscaler</text>
</svg>
